<?xml version="1.0" encoding="utf-8"?>
<svg xmlns="http://www.w3.org/2000/svg"
	xmlns:xlink="http://www.w3.org/1999/xlink"
	width="33px" height="38px" viewBox="0 0 33 38">
<path fillRule="evenodd" d="M 32.99 33.08C 32.99 33.08 30.35 11.96 30.35 11.96 30.21 10.76 29.2 9.87 28.02 9.87 28.02 9.87 23.95 9.87 23.95 9.87 23.95 9.87 23.95 7.44 23.95 7.44 23.95 3.34 20.68 0.01 16.65 0.01 12.63 0.01 9.35 3.34 9.35 7.44 9.35 7.44 9.35 9.87 9.35 9.87 9.35 9.87 5.29 9.87 5.29 9.87 4.1 9.87 3.1 10.76 2.95 11.96 2.95 11.96 0.32 33.08 0.32 33.08 0.31 33.18 0.3 33.28 0.3 33.38 0.3 33.38 0.3 35.63 0.3 35.63 0.3 36.95 1.36 38.01 2.66 38.01 2.66 38.01 30.65 38.01 30.65 38.01 31.95 38.01 33.01 36.95 33.01 35.63 33.01 35.63 33.01 33.38 33.01 33.38 33.01 33.28 33 33.18 32.99 33.08ZM 11.71 7.44C 11.71 4.65 13.93 2.39 16.65 2.39 19.38 2.39 21.6 4.65 21.6 7.44 21.6 7.44 21.6 9.87 21.6 9.87 21.6 9.87 11.71 9.87 11.71 9.87 11.71 9.87 11.71 7.44 11.71 7.44ZM 2.66 35.63C 2.66 35.63 2.66 34.02 2.66 34.02 2.66 34.02 22.77 34.02 22.77 34.02 23.21 34.02 23.56 33.66 23.56 33.22 23.56 32.78 23.21 32.43 22.77 32.43 22.77 32.43 2.78 32.43 2.78 32.43 2.78 32.43 5.29 12.25 5.29 12.25 5.29 12.25 9.35 12.25 9.35 12.25 9.35 12.25 9.35 13.93 9.35 13.93 7.74 14.44 6.56 15.96 6.56 17.76 6.56 19.98 8.34 21.78 10.53 21.78 11 21.78 11.46 21.69 11.9 21.53 12.31 21.38 12.52 20.93 12.37 20.51 12.22 20.1 11.77 19.89 11.36 20.04 11.1 20.14 10.82 20.19 10.53 20.19 9.21 20.19 8.13 19.1 8.13 17.76 8.13 16.86 8.62 16.07 9.35 15.65 9.35 15.65 9.35 17.76 9.35 17.76 9.35 18.42 9.88 18.95 10.53 18.95 11.18 18.95 11.71 18.42 11.71 17.76 11.71 17.76 11.71 15.65 11.71 15.65 12.44 16.07 12.93 16.86 12.93 17.76 12.93 18.2 13.29 18.56 13.72 18.56 14.15 18.56 14.51 18.2 14.51 17.76 14.51 15.96 13.33 14.44 11.71 13.93 11.71 13.93 11.71 12.25 11.71 12.25 11.71 12.25 21.6 12.25 21.6 12.25 21.6 12.25 21.6 13.93 21.6 13.93 19.98 14.44 18.8 15.96 18.8 17.76 18.8 19.98 20.58 21.78 22.77 21.78 23.24 21.78 23.71 21.69 24.14 21.53 24.55 21.38 24.76 20.93 24.61 20.51 24.46 20.1 24.01 19.89 23.6 20.04 23.34 20.14 23.06 20.19 22.77 20.19 21.45 20.19 20.37 19.1 20.37 17.76 20.37 16.86 20.87 16.07 21.6 15.65 21.6 15.65 21.6 17.76 21.6 17.76 21.6 18.42 22.12 18.95 22.77 18.95 23.42 18.95 23.95 18.42 23.95 17.76 23.95 17.76 23.95 15.65 23.95 15.65 24.68 16.07 25.18 16.86 25.18 17.76 25.18 18.2 25.53 18.56 25.96 18.56 26.4 18.56 26.75 18.2 26.75 17.76 26.75 15.96 25.57 14.44 23.95 13.93 23.95 13.93 23.95 12.25 23.95 12.25 23.95 12.25 28.02 12.25 28.02 12.25 28.02 12.25 30.53 32.43 30.53 32.43 30.53 32.43 26.95 32.43 26.95 32.43 26.52 32.43 26.17 32.78 26.17 33.22 26.17 33.66 26.52 34.02 26.95 34.02 26.95 34.02 30.65 34.02 30.65 34.02 30.65 34.02 30.65 35.63 30.65 35.63 30.65 35.63 2.66 35.63 2.66 35.63Z" fill="rgb(255,255,255)"/></svg>