<?xml version="1.0" encoding="utf-8"?>
<svg xmlns="http://www.w3.org/2000/svg"
	xmlns:xlink="http://www.w3.org/1999/xlink"
	width="33px" height="38px" viewBox="0 0 33 38">
<path fillRule="evenodd" d="M 24.39 34.92C 24.39 34.92 25.22 36.13 25.22 36.13 25.59 36.67 25.46 37.4 24.93 37.78 24.72 37.92 24.49 37.99 24.26 37.99 23.89 37.99 23.52 37.81 23.29 37.48 23.29 37.48 22.24 35.96 22.24 35.96 20.4 36.69 18.39 37.1 16.29 37.1 14.19 37.1 12.18 36.69 10.34 35.96 10.34 35.96 9.29 37.48 9.29 37.48 9.06 37.81 8.7 37.99 8.33 37.99 8.09 37.99 7.86 37.92 7.66 37.78 7.12 37.4 6.99 36.67 7.36 36.13 7.36 36.13 8.19 34.92 8.19 34.92 3.3 32.07-0.01 26.74-0.01 20.63-0.01 13.14 4.98 6.8 11.78 4.81 11.78 4.81 11.78 2.36 11.78 2.36 11.78 1.05 12.83-0.01 14.13-0.01 14.13-0.01 18.45-0.01 18.45-0.01 19.75-0.01 20.81 1.05 20.81 2.36 20.81 2.36 20.81 4.81 20.81 4.81 27.6 6.8 32.59 13.14 32.59 20.63 32.59 26.74 29.28 32.07 24.39 34.92ZM 18.45 2.36C 18.45 2.36 14.13 2.36 14.13 2.36 14.13 2.36 14.13 4.32 14.13 4.32 14.84 4.22 15.56 4.17 16.29 4.17 17.03 4.17 17.75 4.22 18.45 4.32 18.45 4.32 18.45 2.36 18.45 2.36ZM 16.29 6.54C 8.59 6.54 2.34 12.85 2.34 20.63 2.34 28.42 8.59 34.73 16.29 34.73 23.99 34.73 30.24 28.42 30.24 20.63 30.24 12.85 23.99 6.54 16.29 6.54ZM 16.29 32.92C 9.59 32.92 4.13 27.41 4.13 20.63 4.13 13.86 9.59 8.35 16.29 8.35 16.72 8.35 17.08 8.71 17.08 9.14 17.08 9.58 16.72 9.93 16.29 9.93 10.45 9.93 5.7 14.73 5.7 20.63 5.7 26.53 10.45 31.33 16.29 31.33 22.13 31.33 26.88 26.53 26.88 20.63 26.88 19.31 26.64 18.01 26.17 16.78 26.02 16.37 26.22 15.91 26.62 15.76 27.03 15.6 27.48 15.8 27.64 16.21 28.18 17.62 28.45 19.11 28.45 20.63 28.45 27.41 22.99 32.92 16.29 32.92ZM 19.75 19.84C 19.75 19.84 24.49 19.84 24.49 19.84 24.93 19.84 25.28 20.2 25.28 20.63 25.28 21.07 24.93 21.43 24.49 21.43 24.49 21.43 19.75 21.43 19.75 21.43 19.32 21.43 18.97 21.07 18.97 20.63 18.97 20.2 19.32 19.84 19.75 19.84ZM 25.21 14.29C 24.98 14.29 24.75 14.19 24.6 13.99 23.23 12.26 21.41 11.01 19.33 10.38 18.91 10.25 18.68 9.81 18.8 9.39 18.92 8.98 19.36 8.74 19.77 8.86 22.17 9.59 24.26 11.02 25.82 13.01 26.09 13.35 26.04 13.85 25.7 14.12 25.55 14.24 25.38 14.29 25.21 14.29ZM 16.29 22.01C 15.54 22.01 14.93 21.39 14.93 20.63 14.93 19.87 15.54 19.26 16.29 19.26 17.04 19.26 17.65 19.87 17.65 20.63 17.65 21.39 17.04 22.01 16.29 22.01ZM 16.29 18.01C 15.86 18.01 15.51 17.66 15.51 17.22 15.51 17.22 15.51 12.43 15.51 12.43 15.51 11.99 15.86 11.64 16.29 11.64 16.72 11.64 17.08 11.99 17.08 12.43 17.08 12.43 17.08 17.22 17.08 17.22 17.08 17.66 16.72 18.01 16.29 18.01Z" fill="rgb(255,255,255)"/></svg>